<svg width="77" height="77" viewBox="0 0 77 77" fill="none" xmlns="http://www.w3.org/2000/svg">
<rect x="1" y="1" width="75" height="75" stroke="white" stroke-width="2"/>
<path d="M35.6151 50.5235C35.1191 50.5206 34.6294 50.413 34.1779 50.2076C33.6896 49.9924 33.2735 49.6412 32.9795 49.1959C32.6854 48.7506 32.5257 48.23 32.5195 47.6964V34.398C32.5257 33.8644 32.6854 33.3439 32.9795 32.8986C33.2735 32.4533 33.6896 32.102 34.1779 31.8868C34.7397 31.6214 35.3648 31.5192 35.982 31.5918C36.5991 31.6644 37.1834 31.9089 37.6683 32.2975L45.7232 38.9466C46.039 39.1981 46.2941 39.5176 46.4694 39.8813C46.6448 40.2449 46.7358 40.6435 46.7358 41.0472C46.7358 41.451 46.6448 41.8495 46.4694 42.2132C46.2941 42.5769 46.039 42.8963 45.7232 43.1478L37.6683 49.797C37.0877 50.2679 36.3627 50.5244 35.6151 50.5235Z" fill="white"/>
</svg>
