<svg width="15" height="20" viewBox="0 0 15 20" fill="none" xmlns="http://www.w3.org/2000/svg">
<path d="M3.61512 19.5235C3.11914 19.5206 2.62938 19.413 2.17788 19.2076C1.68958 18.9924 1.27355 18.6412 0.979483 18.1959C0.685416 17.7506 0.525743 17.23 0.519531 16.6964V3.39803C0.525743 2.86443 0.685416 2.34389 0.979483 1.89859C1.27355 1.45329 1.68958 1.10205 2.17788 0.886812C2.73973 0.621425 3.36484 0.519209 3.98196 0.591811C4.59908 0.664413 5.18339 0.908915 5.66831 1.29745L13.7232 7.94665C14.039 8.19811 14.2941 8.51757 14.4694 8.88126C14.6448 9.24494 14.7358 9.64348 14.7358 10.0472C14.7358 10.451 14.6448 10.8495 14.4694 11.2132C14.2941 11.5769 14.039 11.8963 13.7232 12.1478L5.66831 18.797C5.0877 19.2679 4.36266 19.5244 3.61512 19.5235Z" fill="white"/>
</svg>
